<?xml version="1.0" standalone="no"?>
<!DOCTYPE svg PUBLIC "-//W3C//DTD SVG 20010904//EN"
 "http://www.w3.org/TR/2001/REC-SVG-20010904/DTD/svg10.dtd">
<svg version="1.0" xmlns="http://www.w3.org/2000/svg"
 width="225.000000pt" height="225.000000pt" viewBox="0 0 225.000000 225.000000"
 preserveAspectRatio="xMidYMid meet">

<g transform="translate(0.000000,225.000000) scale(0.100000,-0.100000)"
fill="#000000" stroke="none">
<path d="M312 1748 l3 -163 675 -5 c667 -5 675 -5 715 -26 65 -35 131 -100
159 -156 31 -62 35 -149 10 -221 -19 -55 -89 -137 -144 -168 -22 -12 -37 -25
-35 -29 3 -4 -66 -8 -153 -9 -86 -1 -160 -5 -164 -9 -4 -4 -9 -68 -10 -142
l-3 -135 -36 47 c-20 26 -40 44 -44 40 -5 -4 -5 -2 -2 4 8 15 -22 56 -35 48
-6 -4 -8 -3 -5 3 7 11 -40 79 -52 76 -4 -1 -8 6 -8 15 0 9 87 110 193 223 106
114 190 210 186 214 -4 5 -2 5 4 2 12 -7 81 72 76 86 -1 5 2 6 7 3 5 -3 14 1
21 9 11 13 -17 15 -237 15 l-249 0 -42 -43 c-23 -24 -39 -47 -35 -52 5 -4 3
-5 -3 -2 -6 3 -95 -79 -200 -184 -104 -104 -192 -189 -196 -189 -5 0 -8 108
-8 240 l0 240 -185 0 -185 0 0 -600 0 -600 190 0 190 0 0 98 0 98 60 59 c32
32 56 63 53 68 -3 6 -1 7 4 4 13 -8 36 17 25 28 -4 5 -2 5 4 2 7 -4 17 0 24 8
7 8 16 15 20 15 4 0 40 -39 80 -86 50 -59 77 -84 87 -79 12 4 13 2 6 -7 -8
-10 12 -40 75 -115 l86 -103 223 0 223 0 0 219 0 220 45 7 c27 4 42 10 38 17
-3 6 -1 7 5 3 7 -4 18 -4 25 1 6 4 19 8 27 10 31 4 89 36 83 46 -3 6 -1 7 5 3
26 -16 171 112 156 136 -4 6 -3 8 4 4 13 -8 56 60 46 75 -4 7 -3 9 3 6 6 -4
20 23 34 66 20 60 24 92 24 192 -1 133 -6 170 -35 248 -36 96 -130 223 -157
213 -8 -3 -12 -2 -8 3 12 20 -144 122 -190 125 -13 0 -21 4 -19 8 2 3 -17 13
-43 22 -41 14 -131 16 -730 16 l-683 0 2 -162z m1353 132 c-3 -5 2 -10 12 -10
10 0 53 -16 96 -34 44 -19 86 -32 95 -29 13 4 14 2 4 -4 -10 -7 -3 -16 27 -36
21 -14 63 -50 92 -79 29 -29 56 -52 60 -51 4 1 6 -3 6 -10 -2 -14 55 -130 65
-135 4 -2 4 -10 1 -18 -3 -8 -1 -14 5 -14 6 0 8 -9 5 -20 -3 -11 -1 -20 4 -20
6 0 8 -10 6 -22 -2 -13 0 -51 5 -86 5 -34 5 -65 0 -68 -4 -3 -8 -20 -8 -37 0
-18 -6 -57 -14 -87 -11 -42 -11 -57 -3 -63 8 -6 6 -7 -5 -3 -11 3 -18 0 -18
-7 0 -7 -13 -34 -29 -59 -16 -25 -28 -49 -25 -52 2 -3 1 -4 -2 -2 -3 3 -18 -9
-32 -26 -15 -17 -52 -48 -84 -68 -31 -21 -55 -40 -53 -44 3 -3 2 -4 -1 -2 -3
2 -36 -6 -73 -19 -37 -12 -86 -26 -109 -30 l-42 -7 0 -209 c0 -115 -3 -209 -7
-209 -5 0 -55 63 -112 140 -56 77 -107 137 -112 134 -5 -3 -6 1 -3 9 3 8 2 17
-3 20 -4 3 -7 73 -5 156 l3 151 123 0 c119 0 125 1 185 32 227 117 277 393
100 552 -27 25 -77 59 -111 75 l-61 31 -649 0 -648 0 0 130 0 130 658 3 c361
1 658 3 660 5 2 1 0 -2 -3 -8z"/>
</g>
</svg>
